<?xml version="1.0" standalone="no"?>
<!DOCTYPE svg PUBLIC "-//W3C//DTD SVG 20010904//EN"
 "http://www.w3.org/TR/2001/REC-SVG-20010904/DTD/svg10.dtd">
<svg version="1.0" xmlns="http://www.w3.org/2000/svg"
 width="215.000000pt" height="215.000000pt" viewBox="0 0 215.000000 215.000000"
 preserveAspectRatio="xMidYMid meet">
<metadata>
Created by potrace 1.10, written by Peter Selinger 2001-2011
</metadata>
<g transform="translate(0.000000,215.000000) scale(0.100000,-0.100000)"
fill="#000000" stroke="none">
<path d="M882 1819 c-170 -30 -309 -103 -432 -228 -70 -70 -94 -104 -133 -181
-113 -228 -115 -443 -6 -669 44 -89 63 -116 137 -191 103 -103 194 -160 324
-202 363 -116 768 51 933 385 57 114 74 176 82 297 8 133 -13 235 -79 370 -44
92 -61 115 -142 195 -107 106 -199 162 -331 200 -101 30 -263 41 -353 24z
m313 -62 c269 -75 477 -290 529 -549 92 -453 -284 -874 -754 -845 -153 10
-244 40 -372 124 -190 124 -318 359 -318 583 0 209 117 438 289 564 85 63 211
117 319 136 63 12 245 4 307 -13z"/>
<path d="M705 1455 c-14 -13 -25 -36 -25 -50 0 -36 42 -75 80 -75 38 0 80 39
80 75 0 36 -42 75 -80 75 -19 0 -40 -9 -55 -25z m80 -50 c0 -22 -31 -33 -47
-17 -17 17 -1 44 24 40 15 -2 23 -10 23 -23z"/>
<path d="M1085 1395 c-14 -13 -25 -36 -25 -50 0 -36 42 -75 80 -75 38 0 80 39
80 75 0 36 -42 75 -80 75 -19 0 -40 -9 -55 -25z m85 -50 c0 -20 -5 -25 -24
-25 -14 0 -28 5 -31 10 -12 19 4 40 30 40 20 0 25 -5 25 -25z"/>
<path d="M523 1053 c-15 -3 -23 -12 -23 -25 0 -18 4 -20 45 -14 l45 7 0 -51
c0 -90 5 -93 127 -85 l105 7 32 -33 c42 -43 101 -79 130 -79 13 0 31 9 41 20
13 15 31 20 68 20 41 0 53 -4 69 -25 25 -32 88 -36 88 -7 0 20 29 52 47 52 5
0 22 14 36 30 15 17 32 30 37 30 6 0 10 18 10 40 0 33 -3 40 -20 40 -15 0 -20
-7 -20 -30 0 -25 -9 -36 -61 -70 -33 -23 -63 -48 -66 -56 -8 -20 -23 -17 -23
5 0 25 -19 31 -92 31 -44 0 -67 -5 -88 -20 l-28 -20 -46 22 c-25 13 -45 29
-46 36 0 7 -15 21 -32 33 -28 17 -47 19 -128 17 l-95 -3 -5 55 c-4 46 -9 57
-30 67 -25 13 -37 14 -77 6z"/>
</g>
</svg>
